<?xml version="1.0" standalone="no"?>
<!DOCTYPE svg PUBLIC "-//W3C//DTD SVG 20010904//EN"
 "http://www.w3.org/TR/2001/REC-SVG-20010904/DTD/svg10.dtd">
<svg version="1.0" xmlns="http://www.w3.org/2000/svg"
 width="512.000000pt" height="512.000000pt" viewBox="0 0 512.000000 512.000000"
 preserveAspectRatio="xMidYMid meet">
<metadata>
Created by potrace 1.14, written by Peter Selinger 2001-2017
</metadata>
<g transform="translate(0.000000,512.000000) scale(0.100000,-0.100000)"
fill="#000000" stroke="none">
<path d="M2340 5113 c-33 -3 -142 -17 -220 -29 -53 -8 -236 -52 -310 -75 -504
-155 -966 -477 -1288 -899 -23 -30 -45 -59 -50 -65 -4 -5 -35 -53 -68 -105
-199 -310 -321 -636 -380 -1020 -25 -160 -26 -558 -1 -715 25 -159 25 -158 62
-300 194 -743 722 -1364 1427 -1681 207 -93 439 -161 663 -195 39 -5 84 -12
100 -15 57 -10 470 -12 540 -4 39 5 90 12 115 15 288 37 640 160 903 314 43
25 85 51 95 56 108 63 311 226 437 351 340 336 591 786 691 1237 18 80 45 240
51 305 15 148 6 612 -12 642 -2 3 -6 28 -10 57 -3 28 -22 112 -40 185 -19 73
-37 142 -40 154 -15 61 -94 255 -151 370 -200 406 -511 756 -894 1006 -322
211 -645 334 -1035 394 -101 15 -482 26 -585 17z"/>
</g>
</svg>
